<svg xmlns="http://www.w3.org/2000/svg" xmlns:xlink="http://www.w3.org/1999/xlink" width="500" zoomAndPan="magnify" viewBox="0 0 375 374.999991" height="500" preserveAspectRatio="xMidYMid meet" version="1.0"><defs><clipPath id="da928e90c5"><path d="M 16.3125 6.109375 L 358 6.109375 L 358 368.359375 L 16.3125 368.359375 Z M 16.3125 6.109375 " clip-rule="nonzero"/></clipPath></defs><g clip-path="url(#da928e90c5)"><path fill="#202244" d="M 137.496094 301.53125 L 174.523438 262.777344 C 187.796875 266.652344 200.4375 271.511719 212.40625 277.054688 L 205.707031 284.460938 C 240.554688 301.863281 268.476562 321.828125 290.820312 342.246094 C 297.078125 338.472656 303.089844 334.335938 308.824219 329.859375 C 275.191406 298.867188 208.117188 248.894531 123.890625 247.148438 L 157.210938 212.273438 C 170.988281 215.550781 184.097656 219.957031 196.527344 225.1875 L 192.101562 230.082031 C 248.886719 258.433594 287.277344 293.589844 313.089844 326.421875 C 317.359375 322.875 321.46875 319.140625 325.394531 315.21875 C 290.535156 273.585938 225.679688 213.109375 136.140625 201.566406 L 282.136719 68.972656 C 282.136719 68.972656 319.871094 74.015625 357.742188 102.851562 C 327.425781 45.335938 267.066406 6.117188 197.53125 6.117188 C 97.566406 6.117188 16.53125 87.15625 16.53125 187.117188 C 16.53125 287.082031 97.566406 368.113281 197.53125 368.113281 C 228.003906 368.113281 256.710938 360.574219 281.910156 347.273438 C 245.804688 325.019531 190.832031 298.492188 137.496094 301.53125 " fill-opacity="1" fill-rule="nonzero"/></g></svg>