<svg xmlns="http://www.w3.org/2000/svg" xmlns:xlink="http://www.w3.org/1999/xlink" width="500" zoomAndPan="magnify" viewBox="0 0 375 374.999991" height="500" preserveAspectRatio="xMidYMid meet" version="1.0"><defs><g/><clipPath id="5f41a2159e"><path d="M 16.347656 37.5 L 358.652344 37.5 L 358.652344 336.757812 L 16.347656 336.757812 Z M 16.347656 37.5 " clip-rule="nonzero"/></clipPath><clipPath id="69b0d22c5e"><path d="M 130.511719 45.226562 C 148.003906 40.5625 168.011719 37.5 187.59375 37.5 C 207.175781 37.5 226.015625 40.125 243.378906 44.789062 C 243.75 44.933594 244.121094 44.933594 244.488281 45.082031 C 309.699219 63.738281 357.726562 113.011719 358.652344 169.925781 L 358.652344 336.757812 L 16.347656 336.757812 L 16.347656 170.046875 C 17.273438 112.71875 64.5625 63.449219 130.511719 45.226562 Z M 130.511719 45.226562 " clip-rule="nonzero"/></clipPath><clipPath id="cc9917261d"><path d="M 189 126 L 303.566406 126 L 303.566406 286.179688 L 189 286.179688 Z M 189 126 " clip-rule="nonzero"/></clipPath><clipPath id="f124de2417"><path d="M 189 93 L 278 93 L 278 286.179688 L 189 286.179688 Z M 189 93 " clip-rule="nonzero"/></clipPath><clipPath id="dd6f15d4e6"><path d="M 189 108 L 291 108 L 291 286.179688 L 189 286.179688 Z M 189 108 " clip-rule="nonzero"/></clipPath><clipPath id="8136e6e2cf"><path d="M 71.445312 126 L 186 126 L 186 286.179688 L 71.445312 286.179688 Z M 71.445312 126 " clip-rule="nonzero"/></clipPath><clipPath id="737afcf9d3"><path d="M 97 93 L 186 93 L 186 286.179688 L 97 286.179688 Z M 97 93 " clip-rule="nonzero"/></clipPath><clipPath id="57b304b2b8"><path d="M 84 108 L 186 108 L 186 286.179688 L 84 286.179688 Z M 84 108 " clip-rule="nonzero"/></clipPath></defs><g clip-path="url(#5f41a2159e)"><g clip-path="url(#69b0d22c5e)"><path fill="#545454" d="M 16.347656 37.5 L 358.652344 37.5 L 358.652344 336.757812 L 16.347656 336.757812 Z M 16.347656 37.5 " fill-opacity="1" fill-rule="nonzero"/></g></g><g clip-path="url(#cc9917261d)"><path fill="#f5f4ea" d="M 290.417969 126.78125 C 290.417969 130.128906 290.417969 133.476562 290.417969 136.828125 C 291.550781 137.175781 292.671875 137.535156 293.789062 137.90625 C 293.789062 182.796875 293.789062 227.683594 293.789062 272.574219 C 276.160156 266.675781 257.691406 264.179688 239.347656 265.085938 C 222.511719 268.554688 205.6875 275.679688 189.828125 286.265625 C 226.234375 271.183594 267.136719 271.183594 303.539062 286.265625 C 303.539062 234.675781 303.539062 183.089844 303.539062 131.503906 C 299.230469 129.714844 294.851562 128.140625 290.417969 126.78125 " fill-opacity="1" fill-rule="nonzero"/></g><g clip-path="url(#f124de2417)"><path fill="#f5f4ea" d="M 197.359375 269.328125 C 220.972656 248.953125 246.519531 237.960938 270.128906 238.019531 C 270.128906 193.136719 270.128906 148.246094 270.128906 103.359375 C 246.519531 103.300781 220.972656 114.289062 197.359375 134.671875 C 197.359375 179.558594 197.359375 224.441406 197.359375 269.328125 Z M 277.664062 248.476562 C 249.546875 245.496094 217.949219 259.089844 189.828125 286.265625 C 189.828125 234.675781 189.828125 183.089844 189.828125 131.503906 C 217.949219 104.328125 249.546875 90.726562 277.664062 93.714844 C 277.664062 145.300781 277.664062 196.886719 277.664062 248.476562 " fill-opacity="1" fill-rule="nonzero"/></g><g clip-path="url(#dd6f15d4e6)"><path fill="#f5f4ea" d="M 277.664062 108.875 C 277.664062 112.226562 277.664062 115.574219 277.664062 118.921875 C 279.046875 119.113281 280.425781 119.335938 281.796875 119.578125 C 281.796875 164.460938 281.796875 209.351562 281.796875 254.238281 C 265.757812 251.371094 248.929688 252.265625 232.25 256.71875 C 217.824219 263.167969 203.417969 273.128906 189.828125 286.265625 C 222.035156 264.761719 258.21875 257.554688 290.417969 266.210938 C 290.417969 214.625 290.417969 163.039062 290.417969 111.453125 C 286.230469 110.324219 281.96875 109.46875 277.664062 108.875 " fill-opacity="1" fill-rule="nonzero"/></g><g clip-path="url(#8136e6e2cf)"><path fill="#f5f4ea" d="M 84.570312 126.78125 C 84.570312 130.128906 84.570312 133.476562 84.570312 136.828125 C 83.441406 137.175781 82.324219 137.535156 81.203125 137.90625 C 81.203125 182.796875 81.203125 227.683594 81.203125 272.574219 C 98.839844 266.675781 117.304688 264.179688 135.644531 265.085938 C 152.476562 268.554688 169.304688 275.679688 185.164062 286.265625 C 148.757812 271.183594 107.855469 271.183594 71.449219 286.265625 C 71.449219 234.675781 71.449219 183.089844 71.449219 131.503906 C 75.769531 129.714844 80.144531 128.140625 84.570312 126.78125 " fill-opacity="1" fill-rule="nonzero"/></g><g clip-path="url(#737afcf9d3)"><path fill="#f5f4ea" d="M 177.628906 134.671875 C 154.019531 114.289062 128.46875 103.300781 104.863281 103.359375 C 104.863281 148.246094 104.863281 193.136719 104.863281 238.019531 C 128.46875 237.960938 154.019531 248.953125 177.628906 269.328125 C 177.628906 224.441406 177.628906 179.558594 177.628906 134.671875 Z M 97.332031 93.714844 C 125.449219 90.726562 157.042969 104.328125 185.164062 131.503906 C 185.164062 183.089844 185.164062 234.675781 185.164062 286.265625 C 157.042969 259.089844 125.449219 245.496094 97.332031 248.476562 C 97.332031 196.886719 97.332031 145.300781 97.332031 93.714844 " fill-opacity="1" fill-rule="nonzero"/></g><g clip-path="url(#57b304b2b8)"><path fill="#f5f4ea" d="M 97.332031 108.875 C 97.332031 112.226562 97.332031 115.574219 97.332031 118.921875 C 95.945312 119.113281 94.5625 119.335938 93.195312 119.578125 C 93.195312 164.460938 93.195312 209.351562 93.195312 254.238281 C 109.234375 251.371094 126.066406 252.265625 142.742188 256.71875 C 157.171875 263.167969 171.574219 273.128906 185.164062 286.265625 C 152.957031 264.761719 116.773438 257.554688 84.570312 266.210938 C 84.570312 214.625 84.570312 163.039062 84.570312 111.453125 C 88.761719 110.324219 93.019531 109.46875 97.332031 108.875 " fill-opacity="1" fill-rule="nonzero"/></g><g fill="#f5f4ea" fill-opacity="1"><g transform="translate(95.930103, 315.744686)"><g><path d="M 7.109375 -11.265625 C 6.8125 -11.265625 6.511719 -11.203125 6.210938 -11.1875 C 5.753906 -11.15625 5.292969 -11.03125 4.851562 -10.886719 C 4.171875 -10.699219 3.539062 -10.382812 2.957031 -10.003906 C 2.796875 -9.890625 2.625 -9.8125 2.511719 -9.671875 C 2.292969 -9.417969 2.054688 -9.195312 1.863281 -8.914062 C 1.582031 -8.5 1.296875 -8.089844 1.089844 -7.617188 C 1.027344 -7.476562 0.949219 -7.316406 0.917969 -7.160156 C 0.886719 -6.90625 0.820312 -6.652344 0.773438 -6.398438 C 0.710938 -6.085938 0.710938 -5.769531 0.710938 -5.453125 C 0.710938 -5.183594 0.773438 -4.929688 0.789062 -4.660156 C 0.804688 -4.347656 1.167969 -3.097656 1.25 -2.9375 C 1.484375 -2.417969 2.117188 -1.4375 2.433594 -1.265625 C 2.671875 -1.121094 2.875 -0.933594 3.113281 -0.804688 C 3.714844 -0.472656 4.3125 -0.191406 4.976562 -0.03125 C 5.53125 0.09375 6.101562 0.222656 6.699219 0.207031 C 7.144531 0.207031 7.585938 0.269531 8.027344 0.238281 C 8.628906 0.175781 9.214844 0.09375 9.78125 -0.09375 C 10.351562 -0.285156 10.902344 -0.539062 11.441406 -0.789062 C 11.742188 -0.933594 11.996094 -1.121094 12.277344 -1.28125 C 12.53125 -1.421875 12.546875 -1.628906 12.390625 -1.847656 C 12.230469 -2.039062 12.105469 -2.242188 11.945312 -2.417969 C 11.835938 -2.558594 11.757812 -2.71875 11.648438 -2.84375 C 11.566406 -2.859375 11.488281 -2.828125 11.394531 -2.78125 C 11.140625 -2.574219 10.886719 -2.371094 10.589844 -2.226562 C 10.050781 -1.960938 9.480469 -1.769531 8.914062 -1.644531 C 8.722656 -1.597656 8.519531 -1.582031 8.359375 -1.597656 C 8.027344 -1.644531 7.695312 -1.644531 7.363281 -1.738281 C 6.96875 -1.847656 6.636719 -2.039062 6.289062 -2.242188 C 6.179688 -2.308594 6.066406 -2.386719 5.988281 -2.496094 C 5.609375 -2.972656 5.308594 -3.398438 5.167969 -4.09375 C 5.105469 -4.410156 4.945312 -4.695312 5.042969 -6.101562 C 5.105469 -6.574219 5.261719 -7.109375 5.4375 -7.554688 C 5.578125 -7.886719 5.769531 -8.1875 6.003906 -8.453125 C 6.195312 -8.660156 6.320312 -8.914062 6.574219 -9.070312 C 6.796875 -9.214844 7.03125 -9.339844 7.285156 -9.417969 C 7.539062 -9.496094 7.742188 -9.5625 8.058594 -9.5625 C 8.40625 -9.5625 8.722656 -9.449219 9.054688 -9.355469 C 9.59375 -9.214844 9.957031 -8.914062 10.160156 -8.390625 C 10.289062 -8.074219 10.304688 -8.058594 10.636719 -8.074219 C 10.699219 -8.089844 10.855469 -8.089844 10.902344 -8.089844 C 11.234375 -8.089844 11.472656 -8.042969 11.804688 -8.058594 C 11.929688 -8.058594 12.121094 -8.027344 12.167969 -8.058594 C 12.230469 -8.089844 12.136719 -8.328125 12.121094 -8.421875 C 12.074219 -8.707031 11.945312 -8.945312 11.851562 -9.195312 C 11.804688 -9.339844 11.726562 -9.449219 11.648438 -9.578125 C 11.25 -10.128906 10.667969 -10.445312 10.082031 -10.746094 C 9.324219 -11.125 8.484375 -11.21875 7.632812 -11.234375 C 7.457031 -11.25 7.285156 -11.265625 7.109375 -11.265625 Z M 7.109375 -11.265625 "/></g></g></g><g fill="#f5f4ea" fill-opacity="1"><g transform="translate(109.123384, 315.744686)"><g><path d="M 8.40625 -11.09375 C 7.207031 -11.109375 6.003906 -10.953125 4.804688 -11 C 4.234375 -11.015625 3.667969 -10.984375 3.097656 -10.984375 C 2.511719 -10.984375 1.929688 -11.03125 1.34375 -11 C 1.21875 -11 1.105469 -10.984375 1.011719 -10.839844 C 1.011719 -9.972656 0.996094 -9.070312 1.011719 -8.171875 L 1.011719 -2.734375 C 0.996094 -1.847656 0.933594 -0.949219 0.964844 -0.03125 L 5.292969 -0.03125 C 5.292969 -1.3125 5.167969 -2.542969 5.246094 -3.792969 C 6.351562 -2.542969 7.347656 -1.25 8.535156 -0.03125 C 8.613281 -0.03125 8.738281 -0.046875 8.882812 -0.03125 C 9.496094 0.015625 10.113281 -0.046875 10.730469 0.03125 C 11.472656 0.09375 12.199219 0.09375 12.941406 0.0625 C 13.070312 0.0625 13.148438 0.015625 13.226562 -0.140625 C 12.675781 -0.789062 12.058594 -1.40625 11.472656 -2.054688 C 10.886719 -2.703125 10.304688 -3.367188 9.703125 -4.046875 C 9.890625 -4.09375 10.050781 -4.140625 10.222656 -4.203125 C 11.109375 -4.488281 11.757812 -5.074219 12.121094 -5.925781 C 12.484375 -6.730469 12.484375 -7.585938 12.308594 -8.4375 C 12.074219 -9.542969 11.316406 -10.242188 10.335938 -10.683594 C 9.988281 -10.824219 9.65625 -11.015625 9.261719 -11.046875 C 8.976562 -11.078125 8.691406 -11.09375 8.40625 -11.09375 Z M 5.863281 -9.308594 C 6.304688 -9.308594 6.730469 -9.339844 7.175781 -9.195312 C 7.457031 -9.117188 7.695312 -8.960938 7.855469 -8.707031 C 8.027344 -8.421875 8.203125 -8.121094 8.171875 -7.742188 C 8.171875 -7.523438 8.21875 -7.300781 8.21875 -7.078125 C 8.21875 -6.289062 7.824219 -5.910156 7.144531 -5.65625 C 6.96875 -5.578125 6.761719 -5.546875 6.558594 -5.5625 C 6.148438 -5.578125 5.753906 -5.53125 5.292969 -5.59375 C 5.246094 -6.828125 5.199219 -8.042969 5.277344 -9.261719 C 5.484375 -9.371094 5.6875 -9.324219 5.863281 -9.308594 Z M 5.863281 -9.308594 "/></g></g></g><g fill="#f5f4ea" fill-opacity="1"><g transform="translate(122.774875, 315.744686)"><g><path d="M 10.160156 -11.0625 L 10.035156 -11.0625 C 9.527344 -11.0625 9.023438 -11.09375 8.535156 -11.046875 C 8.027344 -11 7.523438 -11.0625 7.03125 -11.03125 C 6.527344 -10.984375 6.003906 -11.046875 5.5 -11.015625 C 5.152344 -11 4.789062 -11.015625 4.441406 -11 C 3.445312 -10.953125 2.449219 -11.03125 1.453125 -10.984375 C 1.3125 -10.984375 1.234375 -11.015625 1.089844 -10.96875 C 1.058594 -10.917969 0.980469 -10.902344 0.949219 -10.871094 C 0.964844 -10.667969 1.027344 -9.496094 0.996094 -8.011719 C 0.964844 -7.570312 0.964844 -7.128906 0.949219 -6.683594 C 0.949219 -6.242188 0.964844 -5.785156 0.964844 -5.339844 C 0.964844 -4.914062 0.996094 -4.503906 1.027344 -4.078125 C 1.058594 -3.808594 1.042969 -3.539062 1.042969 -3.269531 C 1.042969 -2.9375 1.058594 -2.589844 1.027344 -2.277344 C 0.996094 -1.945312 0.996094 -1.644531 1.027344 -1.328125 C 1.058594 -0.886719 1.074219 -0.425781 1.042969 0.015625 C 1.042969 0.078125 1.46875 0.015625 1.613281 0.015625 C 2.023438 0.015625 2.417969 0.046875 2.8125 0.078125 C 3.160156 0.09375 4.472656 0.015625 4.660156 0.015625 C 5.546875 0.015625 6.433594 0.03125 7.300781 0 C 7.980469 -0.015625 8.660156 -0.0625 9.339844 -0.015625 C 9.875 0.015625 10.398438 -0.078125 10.9375 -0.0625 C 11.15625 -0.046875 11.265625 -0.175781 11.25 -0.394531 L 11.25 -1.582031 C 10.917969 -1.753906 10.605469 -1.597656 10.289062 -1.597656 C 9.765625 -1.597656 9.230469 -1.613281 8.707031 -1.546875 C 8.453125 -1.53125 8.1875 -1.582031 7.949219 -1.53125 C 7.539062 -1.46875 7.144531 -1.484375 6.730469 -1.453125 C 6.414062 -1.4375 6.066406 -1.453125 5.738281 -1.46875 C 5.59375 -1.484375 5.4375 -1.421875 5.308594 -1.515625 C 5.261719 -2.609375 5.167969 -3.699219 5.246094 -4.804688 L 6.414062 -4.804688 C 6.636719 -4.804688 6.859375 -4.804688 7.078125 -4.820312 C 7.648438 -4.835938 8.203125 -4.867188 8.769531 -4.867188 C 9.070312 -4.867188 9.371094 -4.882812 9.671875 -4.882812 C 9.828125 -4.882812 9.925781 -5.007812 9.925781 -5.167969 C 9.910156 -5.515625 9.890625 -5.863281 9.910156 -6.226562 C 9.925781 -6.449219 9.796875 -6.574219 9.578125 -6.589844 C 9.308594 -6.605469 9.039062 -6.589844 8.769531 -6.574219 C 8.21875 -6.558594 7.664062 -6.511719 7.109375 -6.511719 C 6.859375 -6.527344 6.605469 -6.542969 6.351562 -6.496094 C 5.988281 -6.449219 5.640625 -6.558594 5.277344 -6.511719 C 5.167969 -7.476562 5.277344 -8.519531 5.246094 -9.464844 C 7.03125 -9.625 8.832031 -9.511719 10.621094 -9.542969 C 10.636719 -9.625 10.667969 -9.703125 10.652344 -9.78125 C 10.621094 -10.066406 10.589844 -10.351562 10.636719 -10.652344 C 10.667969 -10.953125 10.476562 -11.09375 10.160156 -11.0625 Z M 10.160156 -11.0625 "/></g></g></g><g fill="#f5f4ea" fill-opacity="1"><g transform="translate(134.498724, 315.744686)"><g><path d="M 7.648438 -11.1875 C 7.207031 -11.1875 6.761719 -11.15625 6.335938 -11.15625 C 5.941406 -11.15625 5.5625 -11.140625 5.167969 -11.1875 C 4.992188 -11.203125 4.820312 -11.171875 4.660156 -11.15625 C 4.410156 -10.589844 4.25 -10.019531 4.015625 -9.480469 C 3.761719 -8.898438 3.617188 -8.28125 3.320312 -7.710938 C 3.097656 -7.300781 3.035156 -6.828125 2.859375 -6.398438 C 2.734375 -6.117188 2.671875 -5.800781 2.542969 -5.53125 C 2.261719 -4.945312 2.023438 -4.328125 1.769531 -3.730469 C 1.644531 -3.429688 1.566406 -3.128906 1.421875 -2.84375 C 1.199219 -2.433594 1.058594 -1.992188 0.917969 -1.566406 C 0.789062 -1.152344 0.585938 -0.773438 0.425781 -0.378906 C 0.363281 -0.207031 0.394531 -0.109375 0.457031 0 C 0.949219 -0.015625 1.421875 -0.046875 1.976562 -0.03125 C 2.132812 -0.285156 2.210938 -0.664062 2.371094 -0.996094 C 2.542969 -1.359375 2.671875 -1.722656 2.828125 -2.117188 C 4.1875 -2.039062 5.546875 -2.226562 6.921875 -2.101562 C 7.175781 -1.390625 7.476562 -0.679688 7.710938 0.03125 C 7.855469 0.09375 7.980469 0 8.089844 0.015625 C 8.816406 0.03125 9.542969 0.015625 10.273438 -0.03125 C 10.730469 -0.0625 11.1875 0 11.648438 -0.078125 C 11.789062 -0.109375 11.980469 -0.015625 12.089844 -0.222656 C 10.570312 -3.808594 9.371094 -7.523438 7.824219 -11.125 C 7.789062 -11.140625 7.710938 -11.1875 7.648438 -11.1875 Z M 4.960938 -7.632812 C 5.453125 -6.335938 5.863281 -5.007812 6.351562 -3.699219 C 5.355469 -3.667969 4.394531 -3.601562 3.429688 -3.667969 C 3.964844 -4.960938 4.347656 -6.335938 4.960938 -7.632812 Z M 4.960938 -7.632812 "/></g></g></g><g fill="#f5f4ea" fill-opacity="1"><g transform="translate(147.012589, 315.744686)"><g><path d="M 10.191406 -11.125 C 9.148438 -11.09375 8.089844 -11.09375 7.046875 -11.046875 C 5.785156 -11 4.519531 -11.078125 3.238281 -10.984375 C 2.574219 -10.953125 1.894531 -10.984375 1.234375 -10.96875 C 1.042969 -10.96875 0.851562 -11 0.679688 -10.902344 C 0.570312 -10.414062 0.757812 -9.941406 0.632812 -9.464844 C 0.773438 -9.308594 0.949219 -9.308594 1.121094 -9.324219 C 1.53125 -9.371094 1.945312 -9.386719 2.355469 -9.355469 C 2.6875 -9.339844 3.035156 -9.371094 3.351562 -9.308594 C 3.445312 -9.214844 3.429688 -9.132812 3.429688 -9.054688 C 3.445312 -8.375 3.539062 -7.710938 3.476562 -7.046875 C 3.429688 -6.542969 3.476562 -6.035156 3.476562 -5.546875 C 3.460938 -4.566406 3.445312 -3.601562 3.507812 -2.625 C 3.539062 -1.894531 3.554688 -1.152344 3.460938 -0.410156 C 3.445312 -0.238281 3.429688 -0.0625 3.601562 0.046875 C 4.992188 -0.078125 6.398438 0.078125 7.789062 -0.015625 C 7.886719 -0.191406 7.871094 -0.332031 7.871094 -0.457031 C 7.855469 -0.789062 7.789062 -1.105469 7.804688 -1.421875 C 7.855469 -2.277344 7.824219 -3.128906 7.789062 -3.980469 C 7.773438 -4.363281 7.871094 -4.742188 7.871094 -5.121094 C 7.871094 -5.5625 7.839844 -6.003906 7.824219 -6.449219 C 7.773438 -7.09375 7.804688 -7.742188 7.742188 -8.375 C 7.726562 -8.675781 7.695312 -8.976562 7.789062 -9.292969 C 8.675781 -9.324219 9.578125 -9.417969 10.492188 -9.433594 C 10.730469 -9.972656 10.445312 -10.507812 10.554688 -11 C 10.445312 -11.125 10.320312 -11.125 10.191406 -11.125 Z M 10.191406 -11.125 "/></g></g></g><g fill="#f5f4ea" fill-opacity="1"><g transform="translate(158.151823, 315.744686)"><g><path d="M 10.160156 -11.0625 L 10.035156 -11.0625 C 9.527344 -11.0625 9.023438 -11.09375 8.535156 -11.046875 C 8.027344 -11 7.523438 -11.0625 7.03125 -11.03125 C 6.527344 -10.984375 6.003906 -11.046875 5.5 -11.015625 C 5.152344 -11 4.789062 -11.015625 4.441406 -11 C 3.445312 -10.953125 2.449219 -11.03125 1.453125 -10.984375 C 1.3125 -10.984375 1.234375 -11.015625 1.089844 -10.96875 C 1.058594 -10.917969 0.980469 -10.902344 0.949219 -10.871094 C 0.964844 -10.667969 1.027344 -9.496094 0.996094 -8.011719 C 0.964844 -7.570312 0.964844 -7.128906 0.949219 -6.683594 C 0.949219 -6.242188 0.964844 -5.785156 0.964844 -5.339844 C 0.964844 -4.914062 0.996094 -4.503906 1.027344 -4.078125 C 1.058594 -3.808594 1.042969 -3.539062 1.042969 -3.269531 C 1.042969 -2.9375 1.058594 -2.589844 1.027344 -2.277344 C 0.996094 -1.945312 0.996094 -1.644531 1.027344 -1.328125 C 1.058594 -0.886719 1.074219 -0.425781 1.042969 0.015625 C 1.042969 0.078125 1.46875 0.015625 1.613281 0.015625 C 2.023438 0.015625 2.417969 0.046875 2.8125 0.078125 C 3.160156 0.09375 4.472656 0.015625 4.660156 0.015625 C 5.546875 0.015625 6.433594 0.03125 7.300781 0 C 7.980469 -0.015625 8.660156 -0.0625 9.339844 -0.015625 C 9.875 0.015625 10.398438 -0.078125 10.9375 -0.0625 C 11.15625 -0.046875 11.265625 -0.175781 11.25 -0.394531 L 11.25 -1.582031 C 10.917969 -1.753906 10.605469 -1.597656 10.289062 -1.597656 C 9.765625 -1.597656 9.230469 -1.613281 8.707031 -1.546875 C 8.453125 -1.53125 8.1875 -1.582031 7.949219 -1.53125 C 7.539062 -1.46875 7.144531 -1.484375 6.730469 -1.453125 C 6.414062 -1.4375 6.066406 -1.453125 5.738281 -1.46875 C 5.59375 -1.484375 5.4375 -1.421875 5.308594 -1.515625 C 5.261719 -2.609375 5.167969 -3.699219 5.246094 -4.804688 L 6.414062 -4.804688 C 6.636719 -4.804688 6.859375 -4.804688 7.078125 -4.820312 C 7.648438 -4.835938 8.203125 -4.867188 8.769531 -4.867188 C 9.070312 -4.867188 9.371094 -4.882812 9.671875 -4.882812 C 9.828125 -4.882812 9.925781 -5.007812 9.925781 -5.167969 C 9.910156 -5.515625 9.890625 -5.863281 9.910156 -6.226562 C 9.925781 -6.449219 9.796875 -6.574219 9.578125 -6.589844 C 9.308594 -6.605469 9.039062 -6.589844 8.769531 -6.574219 C 8.21875 -6.558594 7.664062 -6.511719 7.109375 -6.511719 C 6.859375 -6.527344 6.605469 -6.542969 6.351562 -6.496094 C 5.988281 -6.449219 5.640625 -6.558594 5.277344 -6.511719 C 5.167969 -7.476562 5.277344 -8.519531 5.246094 -9.464844 C 7.03125 -9.625 8.832031 -9.511719 10.621094 -9.542969 C 10.636719 -9.625 10.667969 -9.703125 10.652344 -9.78125 C 10.621094 -10.066406 10.589844 -10.351562 10.636719 -10.652344 C 10.667969 -10.953125 10.476562 -11.09375 10.160156 -11.0625 Z M 10.160156 -11.0625 "/></g></g></g><g fill="#f5f4ea" fill-opacity="1"><g transform="translate(169.875672, 315.744686)"><g><path d="M 14.695312 -11.09375 C 14.648438 -11.09375 14.554688 -11.09375 14.492188 -11.078125 C 13.953125 -11.078125 13.417969 -11.0625 12.878906 -11.03125 C 12.625 -11.015625 12.359375 -11 12.105469 -11 C 11.664062 -11 11.234375 -11.03125 10.792969 -11.03125 C 10.621094 -11.046875 10.554688 -10.984375 10.492188 -10.855469 C 10.367188 -10.589844 10.257812 -10.304688 10.113281 -10.035156 C 9.8125 -9.464844 9.511719 -8.898438 9.214844 -8.34375 C 9.039062 -7.996094 8.816406 -7.648438 8.644531 -7.300781 C 8.484375 -6.953125 8.28125 -6.636719 8.171875 -6.273438 C 8.121094 -6.132812 8.027344 -6.003906 7.949219 -5.863281 C 7.523438 -6.398438 7.191406 -6.984375 6.859375 -7.601562 C 6.558594 -8.121094 6.195312 -8.597656 5.925781 -9.132812 C 5.609375 -9.765625 5.214844 -10.367188 4.960938 -11.03125 C 4.929688 -11.09375 4.867188 -11.09375 4.773438 -11.09375 C 4.660156 -11.09375 4.535156 -11.078125 4.425781 -11.078125 C 3.871094 -11.0625 3.304688 -11.078125 2.75 -11.078125 C 2.164062 -11.0625 1.628906 -11.03125 1.027344 -11.078125 C 0.980469 -10.953125 0.933594 -10.839844 0.964844 -10.699219 C 0.980469 -10.539062 0.949219 -10.367188 0.964844 -10.175781 C 0.980469 -9.890625 0.996094 -9.609375 0.996094 -9.308594 C 0.980469 -8.898438 1.042969 -8.5 1.011719 -8.089844 C 0.980469 -7.695312 1.027344 -7.300781 1.027344 -6.890625 L 1.027344 -5.371094 C 1.027344 -4.898438 1.027344 -4.441406 1.042969 -3.980469 L 1.027344 -2.164062 C 1.042969 -1.816406 1.027344 -1.46875 1.011719 -1.136719 C 0.996094 -0.820312 1.027344 -0.488281 0.996094 -0.191406 C 0.996094 -0.09375 1.058594 -0.015625 1.167969 -0.046875 C 1.546875 -0.125 2.148438 -0.0625 2.527344 -0.078125 C 2.703125 -0.09375 2.625 -0.425781 2.625 -0.488281 C 2.609375 -0.871094 2.640625 -1.21875 2.625 -1.582031 C 2.589844 -2.210938 2.589844 -2.859375 2.609375 -3.507812 C 2.625 -3.902344 2.625 -4.328125 2.609375 -4.742188 C 2.609375 -5.058594 2.589844 -5.371094 2.574219 -5.6875 C 2.574219 -5.832031 2.625 -5.988281 2.589844 -6.117188 C 2.542969 -6.398438 2.574219 -6.667969 2.542969 -6.984375 C 2.703125 -6.78125 2.78125 -6.605469 2.890625 -6.433594 C 3.050781 -6.179688 3.222656 -5.910156 3.398438 -5.671875 C 3.652344 -5.339844 3.839844 -4.992188 4.046875 -4.644531 C 4.363281 -4.140625 4.675781 -3.601562 5.007812 -3.097656 C 5.183594 -2.8125 5.371094 -2.542969 5.546875 -2.261719 C 5.59375 -2.195312 5.640625 -2.148438 5.703125 -2.148438 C 5.847656 -2.148438 5.988281 -2.148438 6.132812 -2.164062 C 6.714844 -2.195312 7.316406 -2.292969 7.886719 -2.164062 C 8.058594 -2.132812 8.152344 -2.195312 8.21875 -2.355469 C 8.390625 -2.796875 8.582031 -3.222656 8.800781 -3.632812 C 9.261719 -4.535156 9.703125 -5.421875 10.175781 -6.304688 C 10.289062 -6.496094 10.414062 -6.667969 10.554688 -6.859375 C 10.636719 -6.101562 10.523438 -5.371094 10.539062 -4.628906 C 10.554688 -4.15625 10.570312 -3.652344 10.539062 -3.160156 C 10.492188 -2.527344 10.492188 -1.914062 10.492188 -1.28125 C 10.476562 -0.886719 10.445312 -0.222656 10.507812 -0.0625 C 10.621094 -0.03125 10.652344 0.015625 10.746094 0 C 11.109375 -0.0625 11.472656 -0.015625 11.835938 0 C 12.625 0.03125 13.417969 -0.09375 14.191406 -0.078125 L 14.761719 -0.078125 C 14.871094 -0.175781 14.886719 -0.285156 14.871094 -0.410156 C 14.871094 -0.648438 14.855469 -0.917969 14.855469 -1.152344 C 14.855469 -1.390625 14.871094 -1.644531 14.839844 -1.878906 C 14.808594 -2.210938 14.824219 -2.527344 14.808594 -2.859375 C 14.792969 -3.207031 14.792969 -3.539062 14.808594 -3.886719 C 14.808594 -4.15625 14.761719 -4.410156 14.777344 -4.660156 C 14.808594 -5.261719 14.824219 -5.863281 14.824219 -6.480469 C 14.824219 -6.8125 14.792969 -7.175781 14.824219 -7.507812 C 14.839844 -7.824219 14.808594 -8.121094 14.808594 -8.4375 C 14.824219 -8.832031 14.777344 -9.230469 14.742188 -9.625 L 14.742188 -10.824219 C 14.742188 -10.9375 14.824219 -11.015625 14.695312 -11.09375 Z M 14.695312 -11.09375 "/></g></g></g><g fill="#f5f4ea" fill-opacity="1"><g transform="translate(185.723402, 315.744686)"><g><path d="M 11.648438 -11.09375 C 11.078125 -11.265625 10.570312 -11.15625 10.082031 -10.9375 C 9.859375 -10.824219 9.703125 -10.667969 9.578125 -10.445312 C 9.261719 -9.890625 8.976562 -9.339844 8.738281 -8.753906 C 8.453125 -8.042969 8.121094 -7.363281 7.757812 -6.667969 C 7.632812 -6.382812 7.585938 -6.066406 7.363281 -5.832031 C 7.332031 -5.863281 7.300781 -5.863281 7.285156 -5.878906 C 6.527344 -7.570312 5.71875 -9.230469 4.992188 -10.9375 C 4.789062 -11.078125 4.566406 -11.0625 4.347656 -11.046875 C 4.1875 -11.046875 4.046875 -11.03125 3.886719 -11.03125 C 2.8125 -11.046875 1.738281 -11.046875 0.648438 -11.0625 C 0.539062 -11.0625 0.457031 -11.09375 0.394531 -10.96875 C 0.378906 -10.886719 0.394531 -10.839844 0.425781 -10.777344 C 0.664062 -10.320312 0.980469 -9.910156 1.21875 -9.449219 C 1.484375 -8.960938 1.707031 -8.421875 1.976562 -7.933594 C 2.511719 -6.875 3.066406 -5.847656 3.632812 -4.820312 C 3.855469 -4.457031 3.949219 -4.078125 3.964844 -3.652344 C 4.015625 -2.542969 3.980469 -1.453125 4 -0.332031 C 4 -0.207031 3.949219 -0.0625 4.09375 0.0625 C 4.328125 0.03125 4.613281 -0.015625 4.898438 0 C 5.40625 0.015625 5.910156 -0.0625 6.414062 -0.015625 C 7.0625 0.0625 7.695312 0.046875 8.34375 -0.046875 C 8.46875 -0.253906 8.421875 -0.425781 8.421875 -0.617188 C 8.40625 -0.996094 8.328125 -1.375 8.34375 -1.738281 L 8.390625 -3.699219 C 8.390625 -3.886719 8.421875 -4.09375 8.519531 -4.265625 C 8.800781 -4.820312 9.007812 -5.421875 9.277344 -5.988281 C 9.71875 -6.90625 10.097656 -7.855469 10.570312 -8.753906 C 10.777344 -9.148438 10.984375 -9.527344 11.582031 -9.449219 C 11.632812 -9.449219 11.664062 -9.464844 11.710938 -9.527344 C 11.632812 -10.019531 11.726562 -10.554688 11.648438 -11.09375 Z M 11.648438 -11.09375 "/></g></g></g><g fill="#f5f4ea" fill-opacity="1"><g transform="translate(197.873857, 315.744686)"><g><path d="M 4.613281 -11.265625 C 3.933594 -11.21875 3.320312 -11.015625 2.71875 -10.746094 C 2.433594 -10.621094 2.164062 -10.476562 1.945312 -10.257812 C 1.359375 -9.671875 1.027344 -8.976562 0.980469 -8.136719 C 0.933594 -7.253906 1.183594 -6.433594 1.847656 -5.863281 C 2.371094 -5.40625 2.796875 -4.820312 3.492188 -4.550781 C 3.746094 -4.441406 3.964844 -4.25 4.203125 -4.109375 C 4.613281 -3.886719 5.023438 -3.632812 5.421875 -3.382812 C 5.800781 -3.128906 6.179688 -2.859375 6.542969 -2.558594 C 6.828125 -2.308594 6.796875 -1.644531 6.351562 -1.53125 C 5.6875 -1.34375 5.042969 -1.34375 4.410156 -1.566406 C 4.0625 -1.597656 3.652344 -1.863281 3.285156 -2.054688 C 2.859375 -2.261719 2.417969 -2.625 2.117188 -3.003906 C 2.039062 -3.097656 1.914062 -3.175781 1.832031 -3.238281 C 1.597656 -3.253906 1.5 -3.128906 1.40625 -3.019531 C 1.25 -2.828125 1.105469 -2.640625 0.980469 -2.449219 C 0.886719 -2.324219 0.601562 -1.992188 0.648438 -1.878906 C 0.757812 -1.628906 1.152344 -1.359375 1.359375 -1.183594 C 2.054688 -0.570312 2.859375 -0.191406 3.746094 0.03125 C 4.804688 0.285156 5.878906 0.285156 6.953125 0.140625 C 7.886719 0.03125 8.753906 -0.253906 9.496094 -0.835938 C 9.765625 -1.042969 10.019531 -1.28125 10.144531 -1.582031 C 10.320312 -2.054688 10.460938 -2.527344 10.460938 -3.066406 C 10.429688 -3.980469 10.097656 -4.742188 9.433594 -5.355469 C 9.007812 -5.785156 8.46875 -6.066406 7.996094 -6.449219 C 7.617188 -6.730469 7.207031 -6.953125 6.8125 -7.222656 C 6.382812 -7.507812 5.941406 -7.773438 5.515625 -8.074219 C 5.355469 -8.1875 5.214844 -8.34375 5.121094 -8.519531 C 4.882812 -8.929688 5.023438 -9.308594 5.453125 -9.449219 C 5.59375 -9.496094 5.71875 -9.527344 5.863281 -9.527344 C 6.304688 -9.5625 6.714844 -9.511719 7.128906 -9.371094 C 7.648438 -9.195312 8.074219 -8.898438 8.296875 -8.375 C 8.34375 -8.28125 8.375 -8.171875 8.519531 -8.089844 C 9.039062 -8.105469 9.609375 -7.996094 10.160156 -8.089844 C 10.191406 -8.328125 10.160156 -8.484375 10.097656 -8.660156 C 10.003906 -8.867188 9.859375 -9.039062 9.75 -9.230469 C 9.246094 -10.050781 8.582031 -10.652344 7.648438 -10.953125 C 6.667969 -11.265625 5.65625 -11.347656 4.613281 -11.265625 Z M 4.613281 -11.265625 "/></g></g></g><g fill="#f5f4ea" fill-opacity="1"><g transform="translate(208.902488, 315.744686)"><g><path d="M 10.191406 -11.125 C 9.148438 -11.09375 8.089844 -11.09375 7.046875 -11.046875 C 5.785156 -11 4.519531 -11.078125 3.238281 -10.984375 C 2.574219 -10.953125 1.894531 -10.984375 1.234375 -10.96875 C 1.042969 -10.96875 0.851562 -11 0.679688 -10.902344 C 0.570312 -10.414062 0.757812 -9.941406 0.632812 -9.464844 C 0.773438 -9.308594 0.949219 -9.308594 1.121094 -9.324219 C 1.53125 -9.371094 1.945312 -9.386719 2.355469 -9.355469 C 2.6875 -9.339844 3.035156 -9.371094 3.351562 -9.308594 C 3.445312 -9.214844 3.429688 -9.132812 3.429688 -9.054688 C 3.445312 -8.375 3.539062 -7.710938 3.476562 -7.046875 C 3.429688 -6.542969 3.476562 -6.035156 3.476562 -5.546875 C 3.460938 -4.566406 3.445312 -3.601562 3.507812 -2.625 C 3.539062 -1.894531 3.554688 -1.152344 3.460938 -0.410156 C 3.445312 -0.238281 3.429688 -0.0625 3.601562 0.046875 C 4.992188 -0.078125 6.398438 0.078125 7.789062 -0.015625 C 7.886719 -0.191406 7.871094 -0.332031 7.871094 -0.457031 C 7.855469 -0.789062 7.789062 -1.105469 7.804688 -1.421875 C 7.855469 -2.277344 7.824219 -3.128906 7.789062 -3.980469 C 7.773438 -4.363281 7.871094 -4.742188 7.871094 -5.121094 C 7.871094 -5.5625 7.839844 -6.003906 7.824219 -6.449219 C 7.773438 -7.09375 7.804688 -7.742188 7.742188 -8.375 C 7.726562 -8.675781 7.695312 -8.976562 7.789062 -9.292969 C 8.675781 -9.324219 9.578125 -9.417969 10.492188 -9.433594 C 10.730469 -9.972656 10.445312 -10.507812 10.554688 -11 C 10.445312 -11.125 10.320312 -11.125 10.191406 -11.125 Z M 10.191406 -11.125 "/></g></g></g><g fill="#f5f4ea" fill-opacity="1"><g transform="translate(220.041722, 315.744686)"><g><path d="M 7.632812 -11.25 C 7.269531 -11.285156 6.90625 -11.265625 6.542969 -11.234375 C 6.242188 -11.203125 5.925781 -11.171875 5.625 -11.09375 C 5.339844 -11.03125 4.976562 -10.917969 4.789062 -10.855469 C 4.296875 -10.714844 4.078125 -10.570312 3.601562 -10.398438 C 3.019531 -10.160156 2.558594 -9.734375 2.179688 -9.261719 C 1.914062 -8.945312 1.675781 -8.582031 1.453125 -8.21875 C 1.152344 -7.695312 0.964844 -7.160156 0.804688 -6.589844 C 0.710938 -6.226562 0.664062 -4.757812 0.757812 -4.425781 C 0.886719 -4 1.183594 -3.019531 1.421875 -2.640625 C 1.566406 -2.417969 1.707031 -2.179688 1.894531 -2.007812 C 2.195312 -1.707031 2.371094 -1.328125 2.75 -1.105469 C 2.9375 -0.996094 3.128906 -0.871094 3.304688 -0.726562 C 3.585938 -0.503906 3.949219 -0.441406 4.28125 -0.285156 C 4.660156 -0.078125 5.105469 -0.0625 5.515625 0.046875 C 5.941406 0.140625 6.382812 0.140625 6.8125 0.207031 C 7.0625 0.238281 7.316406 0.222656 7.570312 0.222656 C 7.980469 0.222656 8.136719 0.207031 8.582031 0.125 C 8.976562 0.0625 9.386719 0.0625 9.78125 -0.078125 C 10.097656 -0.207031 10.414062 -0.316406 10.699219 -0.488281 C 11.203125 -0.773438 11.695312 -1.089844 12.058594 -1.566406 C 12.375 -1.960938 12.640625 -2.386719 12.863281 -2.84375 C 13.039062 -3.222656 13.164062 -3.632812 13.273438 -4.046875 C 13.480469 -4.789062 13.574219 -5.53125 13.480469 -6.257812 C 13.480469 -6.78125 13.320312 -7.207031 13.195312 -7.648438 C 13.023438 -8.28125 12.675781 -8.816406 12.230469 -9.292969 C 11.882812 -9.671875 11.472656 -9.988281 11.046875 -10.273438 C 10.902344 -10.367188 10.761719 -10.523438 10.621094 -10.570312 C 10.242188 -10.699219 9.910156 -10.9375 9.496094 -10.984375 C 9.164062 -11.03125 8.832031 -11.1875 8.484375 -11.203125 Z M 7.015625 -9.625 C 7.253906 -9.703125 7.855469 -9.609375 7.996094 -9.417969 C 8.234375 -9.101562 8.359375 -8.769531 8.484375 -8.359375 C 8.738281 -7.804688 8.628906 -7.285156 8.738281 -6.683594 C 8.769531 -6.464844 8.769531 -6.226562 8.769531 -6.003906 C 8.769531 -5.371094 8.785156 -4.757812 8.722656 -4.125 C 8.660156 -3.492188 8.535156 -2.875 8.359375 -2.277344 C 8.25 -1.929688 8.027344 -1.660156 7.726562 -1.46875 C 7.523438 -1.328125 7.269531 -1.34375 7.015625 -1.4375 C 6.574219 -1.582031 6.320312 -1.914062 6.101562 -2.292969 C 5.769531 -2.859375 5.65625 -3.492188 5.53125 -4.125 C 5.484375 -4.328125 5.484375 -4.566406 5.46875 -4.789062 C 5.4375 -5.136719 5.371094 -5.546875 5.421875 -5.894531 C 5.5 -6.621094 5.546875 -7.269531 5.769531 -7.964844 C 5.894531 -8.328125 5.988281 -8.691406 6.195312 -9.007812 C 6.351562 -9.277344 6.699219 -9.527344 7.015625 -9.625 Z M 7.015625 -9.625 "/></g></g></g><g fill="#f5f4ea" fill-opacity="1"><g transform="translate(234.262011, 315.744686)"><g><path d="M 8.40625 -11.09375 C 7.207031 -11.109375 6.003906 -10.953125 4.804688 -11 C 4.234375 -11.015625 3.667969 -10.984375 3.097656 -10.984375 C 2.511719 -10.984375 1.929688 -11.03125 1.34375 -11 C 1.21875 -11 1.105469 -10.984375 1.011719 -10.839844 C 1.011719 -9.972656 0.996094 -9.070312 1.011719 -8.171875 L 1.011719 -2.734375 C 0.996094 -1.847656 0.933594 -0.949219 0.964844 -0.03125 L 5.292969 -0.03125 C 5.292969 -1.3125 5.167969 -2.542969 5.246094 -3.792969 C 6.351562 -2.542969 7.347656 -1.25 8.535156 -0.03125 C 8.613281 -0.03125 8.738281 -0.046875 8.882812 -0.03125 C 9.496094 0.015625 10.113281 -0.046875 10.730469 0.03125 C 11.472656 0.09375 12.199219 0.09375 12.941406 0.0625 C 13.070312 0.0625 13.148438 0.015625 13.226562 -0.140625 C 12.675781 -0.789062 12.058594 -1.40625 11.472656 -2.054688 C 10.886719 -2.703125 10.304688 -3.367188 9.703125 -4.046875 C 9.890625 -4.09375 10.050781 -4.140625 10.222656 -4.203125 C 11.109375 -4.488281 11.757812 -5.074219 12.121094 -5.925781 C 12.484375 -6.730469 12.484375 -7.585938 12.308594 -8.4375 C 12.074219 -9.542969 11.316406 -10.242188 10.335938 -10.683594 C 9.988281 -10.824219 9.65625 -11.015625 9.261719 -11.046875 C 8.976562 -11.078125 8.691406 -11.09375 8.40625 -11.09375 Z M 5.863281 -9.308594 C 6.304688 -9.308594 6.730469 -9.339844 7.175781 -9.195312 C 7.457031 -9.117188 7.695312 -8.960938 7.855469 -8.707031 C 8.027344 -8.421875 8.203125 -8.121094 8.171875 -7.742188 C 8.171875 -7.523438 8.21875 -7.300781 8.21875 -7.078125 C 8.21875 -6.289062 7.824219 -5.910156 7.144531 -5.65625 C 6.96875 -5.578125 6.761719 -5.546875 6.558594 -5.5625 C 6.148438 -5.578125 5.753906 -5.53125 5.292969 -5.59375 C 5.246094 -6.828125 5.199219 -8.042969 5.277344 -9.261719 C 5.484375 -9.371094 5.6875 -9.324219 5.863281 -9.308594 Z M 5.863281 -9.308594 "/></g></g></g><g fill="#f5f4ea" fill-opacity="1"><g transform="translate(247.913502, 315.744686)"><g><path d="M 11.648438 -11.09375 C 11.078125 -11.265625 10.570312 -11.15625 10.082031 -10.9375 C 9.859375 -10.824219 9.703125 -10.667969 9.578125 -10.445312 C 9.261719 -9.890625 8.976562 -9.339844 8.738281 -8.753906 C 8.453125 -8.042969 8.121094 -7.363281 7.757812 -6.667969 C 7.632812 -6.382812 7.585938 -6.066406 7.363281 -5.832031 C 7.332031 -5.863281 7.300781 -5.863281 7.285156 -5.878906 C 6.527344 -7.570312 5.71875 -9.230469 4.992188 -10.9375 C 4.789062 -11.078125 4.566406 -11.0625 4.347656 -11.046875 C 4.1875 -11.046875 4.046875 -11.03125 3.886719 -11.03125 C 2.8125 -11.046875 1.738281 -11.046875 0.648438 -11.0625 C 0.539062 -11.0625 0.457031 -11.09375 0.394531 -10.96875 C 0.378906 -10.886719 0.394531 -10.839844 0.425781 -10.777344 C 0.664062 -10.320312 0.980469 -9.910156 1.21875 -9.449219 C 1.484375 -8.960938 1.707031 -8.421875 1.976562 -7.933594 C 2.511719 -6.875 3.066406 -5.847656 3.632812 -4.820312 C 3.855469 -4.457031 3.949219 -4.078125 3.964844 -3.652344 C 4.015625 -2.542969 3.980469 -1.453125 4 -0.332031 C 4 -0.207031 3.949219 -0.0625 4.09375 0.0625 C 4.328125 0.03125 4.613281 -0.015625 4.898438 0 C 5.40625 0.015625 5.910156 -0.0625 6.414062 -0.015625 C 7.0625 0.0625 7.695312 0.046875 8.34375 -0.046875 C 8.46875 -0.253906 8.421875 -0.425781 8.421875 -0.617188 C 8.40625 -0.996094 8.328125 -1.375 8.34375 -1.738281 L 8.390625 -3.699219 C 8.390625 -3.886719 8.421875 -4.09375 8.519531 -4.265625 C 8.800781 -4.820312 9.007812 -5.421875 9.277344 -5.988281 C 9.71875 -6.90625 10.097656 -7.855469 10.570312 -8.753906 C 10.777344 -9.148438 10.984375 -9.527344 11.582031 -9.449219 C 11.632812 -9.449219 11.664062 -9.464844 11.710938 -9.527344 C 11.632812 -10.019531 11.726562 -10.554688 11.648438 -11.09375 Z M 11.648438 -11.09375 "/></g></g></g><g fill="#f5f4ea" fill-opacity="1"><g transform="translate(260.063957, 315.744686)"><g><path d="M 7.648438 -11.1875 C 7.207031 -11.1875 6.761719 -11.15625 6.335938 -11.15625 C 5.941406 -11.15625 5.5625 -11.140625 5.167969 -11.1875 C 4.992188 -11.203125 4.820312 -11.171875 4.660156 -11.15625 C 4.410156 -10.589844 4.25 -10.019531 4.015625 -9.480469 C 3.761719 -8.898438 3.617188 -8.28125 3.320312 -7.710938 C 3.097656 -7.300781 3.035156 -6.828125 2.859375 -6.398438 C 2.734375 -6.117188 2.671875 -5.800781 2.542969 -5.53125 C 2.261719 -4.945312 2.023438 -4.328125 1.769531 -3.730469 C 1.644531 -3.429688 1.566406 -3.128906 1.421875 -2.84375 C 1.199219 -2.433594 1.058594 -1.992188 0.917969 -1.566406 C 0.789062 -1.152344 0.585938 -0.773438 0.425781 -0.378906 C 0.363281 -0.207031 0.394531 -0.109375 0.457031 0 C 0.949219 -0.015625 1.421875 -0.046875 1.976562 -0.03125 C 2.132812 -0.285156 2.210938 -0.664062 2.371094 -0.996094 C 2.542969 -1.359375 2.671875 -1.722656 2.828125 -2.117188 C 4.1875 -2.039062 5.546875 -2.226562 6.921875 -2.101562 C 7.175781 -1.390625 7.476562 -0.679688 7.710938 0.03125 C 7.855469 0.09375 7.980469 0 8.089844 0.015625 C 8.816406 0.03125 9.542969 0.015625 10.273438 -0.03125 C 10.730469 -0.0625 11.1875 0 11.648438 -0.078125 C 11.789062 -0.109375 11.980469 -0.015625 12.089844 -0.222656 C 10.570312 -3.808594 9.371094 -7.523438 7.824219 -11.125 C 7.789062 -11.140625 7.710938 -11.1875 7.648438 -11.1875 Z M 4.960938 -7.632812 C 5.453125 -6.335938 5.863281 -5.007812 6.351562 -3.699219 C 5.355469 -3.667969 4.394531 -3.601562 3.429688 -3.667969 C 3.964844 -4.960938 4.347656 -6.335938 4.960938 -7.632812 Z M 4.960938 -7.632812 "/></g></g></g><g fill="#f5f4ea" fill-opacity="1"><g transform="translate(272.577822, 315.744686)"><g><path d="M 5.152344 -11.09375 C 4.851562 -11.046875 4.566406 -11.03125 4.265625 -11.046875 C 3.933594 -11.0625 3.585938 -11.0625 3.238281 -11.046875 C 3.035156 -11.03125 2.828125 -11.03125 2.625 -11.046875 C 2.371094 -11.0625 2.117188 -11.125 1.863281 -11.0625 C 1.566406 -11 1.265625 -11.0625 0.949219 -11.015625 C 0.949219 -11 0.980469 -10.351562 0.980469 -10.066406 C 0.980469 -9.8125 0.949219 -9.5625 0.964844 -9.308594 C 0.964844 -9.054688 1.011719 -8.816406 1.027344 -8.566406 C 1.058594 -8.21875 1.027344 -7.855469 1.027344 -7.492188 C 1.042969 -7 1.027344 -6.511719 1.027344 -6.019531 C 1.027344 -5.609375 0.996094 -5.214844 1.011719 -4.820312 C 1.027344 -4.09375 0.996094 -3.367188 0.980469 -2.640625 C 0.964844 -2.242188 0.980469 -1.847656 1.011719 -1.4375 C 1.042969 -1.074219 0.996094 -0.695312 0.964844 -0.316406 C 0.964844 -0.175781 0.996094 -0.0625 1.121094 0.015625 C 1.597656 -0.0625 2.070312 -0.03125 2.542969 -0.015625 C 2.859375 0 3.160156 0.046875 3.476562 0.03125 C 4.078125 0.015625 4.675781 -0.078125 5.292969 -0.078125 C 5.4375 -0.078125 5.53125 -0.207031 5.484375 -0.347656 C 5.46875 -0.410156 5.453125 -0.472656 5.453125 -0.539062 C 5.453125 -1.058594 5.46875 -1.582031 5.453125 -2.085938 C 5.453125 -2.558594 5.46875 -3.035156 5.4375 -3.507812 C 5.390625 -4.1875 5.4375 -4.867188 5.453125 -5.546875 C 5.453125 -6.117188 5.46875 -6.683594 5.453125 -7.253906 C 5.4375 -7.601562 5.46875 -7.949219 5.453125 -8.296875 C 5.4375 -8.898438 5.5 -9.511719 5.46875 -10.113281 C 5.453125 -10.335938 5.453125 -10.570312 5.46875 -10.792969 C 5.484375 -11.046875 5.390625 -11.109375 5.152344 -11.09375 Z M 5.152344 -11.09375 "/></g></g></g></svg>